<mxfile host="app.diagrams.net" modified="2023-12-05T01:48:03.762Z" agent="Mozilla/5.0 (Windows NT 10.0; Win64; x64) AppleWebKit/537.36 (KHTML, like Gecko) Chrome/119.0.0.0 Safari/537.36" version="22.1.5" etag="KhVdlbWz-XZNWxIOLJjP" type="github">
  <diagram name="PÃ¡gina-1" id="_j-NSZvh4gomwTT8897T">
    <mxGraphModel>
      <root>
        <mxCell id="0" />
        <mxCell id="1" parent="0" />
      </root>
    </mxGraphModel>
  </diagram>
</mxfile>
